<?xml version="1.0" encoding="UTF-8"?>
<svg width="213px" height="202px" viewBox="0 0 213 202" version="1.1" xmlns="http://www.w3.org/2000/svg" xmlns:xlink="http://www.w3.org/1999/xlink">
    <title>Apruve</title>
    <g id="Design-System" stroke="none" stroke-width="1" fill="none" fill-rule="evenodd">
        <g id="logos/a-slash" fill="#00A3A0" fill-rule="nonzero">
            <path d="M76.1667029,117.785153 C69.6704425,121.043292 62.6466494,123.110708 55.4261519,123.890024 C49.182681,124.583392 42.9078021,124.953874 36.626399,125 C25.8146979,125 16.6876021,122.067812 9.24511169,116.203436 C1.80262125,110.339061 -1.14635961,100.641566 0.398169115,87.1109532 C1.82842483,74.483121 6.52836307,65.4627122 14.4979838,60.0497269 C22.4676046,54.6367417 32.2619073,51.0274682 43.8808919,49.2219065 C45.7272176,49.1808811 47.564786,48.9540502 49.3659963,48.5448208 C51.5187523,48.0934304 53.9645633,47.7234383 56.7034293,47.4348444 C70.1212922,45.6292827 77.1711995,41.7203155 77.8531514,35.707943 C78.3176158,31.1940387 76.3104657,28.2600009 71.8317011,26.9058296 C67.7553884,25.619035 63.5141389,24.9347729 59.2413959,24.8745727 C55.3477675,24.8258597 51.4740459,25.4394761 47.7846053,26.6893842 C44.3730421,27.8715769 41.5276933,30.2957422 39.8112983,33.4824402 L9.66534146,33.4824402 C11.9213118,24.1327384 16.9935589,16.4406015 24.8820827,10.4060294 C33.7511426,3.47237639 45.692672,0.00369992156 60.7066708,1.42108547e-14 C77.5084892,1.42108547e-14 89.7909945,2.85818941 97.5541866,8.57456822 C105.582787,14.5906407 108.983331,23.0153621 107.755817,33.8487324 L103.100114,74.9178617 C101.73621,86.9537066 98.4941742,96.3552073 93.3740062,103.122364 C88.2538382,109.88952 82.5180704,114.778967 76.1667029,117.790703 L76.1667029,117.785153 Z M75,62 C70.5204879,64.0879121 64.3968798,66.025641 56.6291757,67.8131868 L45.9295623,70.0494505 C40.3069767,71.53663 36.1484901,73.4725275 33.4541025,75.8571429 C30.9564127,79.1538462 29.5182926,82.4322344 29.1397423,85.6923077 C28.6164521,90.1465201 29.5628279,93.7234432 31.9788696,96.4230769 C34.4283129,98.8076923 38.2268055,100 43.3743476,100 C51.8509057,100 58.785428,97.6190476 64.1779144,92.8571429 C69.5704008,88.0952381 72.7472545,81.5384615 73.7084754,73.1868132 L75,62 Z M35.4628352,201.795622 L28.3917674,194.724554 L205.673773,17.4425486 L212.74484,24.5136164 L35.4628352,201.795622 Z"></path>
        </g>
    </g>
</svg>